<svg width="262" height="128" viewBox="0 0 262 128" fill="none" xmlns="http://www.w3.org/2000/svg">
<path d="M18.8287 22.3474C20.1287 34.3474 17.1287 44.4474 12.2287 44.9474C7.32873 45.4474 2.32873 36.1474 1.12873 24.1474C-0.171265 12.2474 2.82873 2.04739 7.62874 1.54739C12.5287 1.04739 17.5287 10.3474 18.8287 22.3474Z" fill="#C31E1A"/>
<path d="M22.7287 21.4474C24.0287 33.4474 21.0287 43.5474 16.1287 44.0474C11.2287 44.5474 6.22873 35.2474 5.02873 23.2474C3.72873 11.2474 6.72873 1.1474 11.6287 0.647395C16.5287 0.147395 21.5287 9.4474 22.7287 21.4474Z" fill="#DFA0AE"/>
<path d="M25.8287 21.2474C27.1287 33.2474 24.1287 43.3474 19.2287 43.8474C14.3287 44.3474 9.32873 35.0474 8.12873 23.0474C6.82873 11.0474 9.82873 0.947383 14.6287 0.447383C19.5287 -0.0526167 24.5287 9.24738 25.8287 21.2474Z" fill="#C31E1A"/>
<path d="M30.7287 21.0474C32.0287 33.0474 29.0287 43.1474 24.1287 43.6474C19.2287 44.1474 14.2287 34.8474 13.0287 22.8474C11.7287 10.8474 14.7287 0.747402 19.6287 0.247402C24.4287 -0.252598 29.4287 9.0474 30.7287 21.0474Z" fill="#DFA0AE"/>
<path d="M33.5288 21.0474C34.8288 33.0474 31.8288 43.1474 26.9288 43.6474C22.0288 44.1474 17.0288 34.8474 15.8288 22.8474C14.5288 10.8474 17.5288 0.747402 22.4288 0.247402C27.3288 -0.252598 32.2288 9.0474 33.5288 21.0474Z" fill="#C31E1A"/>
<path d="M100.329 22.5474C99.0288 34.5474 102.029 44.6474 106.929 45.1474C111.829 45.6474 116.829 36.3474 118.029 24.3474C119.329 12.3474 116.329 2.2474 111.429 1.7474C106.629 1.2474 101.629 10.5474 100.329 22.5474Z" fill="#C31E1A"/>
<path d="M96.4286 21.5474C95.1286 33.5474 98.1286 43.6474 103.029 44.1474C107.829 44.7474 112.829 35.4474 114.029 23.4474C115.329 11.4474 112.329 1.34738 107.429 0.847379C102.629 0.347379 97.6286 9.64738 96.4286 21.5474Z" fill="#DFA0AE"/>
<path d="M93.3288 21.4474C92.0288 33.4474 95.0288 43.5474 99.9288 44.0474C104.829 44.5474 109.829 35.2474 111.029 23.2474C112.329 11.2474 109.329 1.1474 104.429 0.647395C99.6288 0.147395 94.6288 9.4474 93.3288 21.4474Z" fill="#C31E1A"/>
<path d="M88.4286 21.2474C87.1286 33.2474 90.1286 43.3474 95.0286 43.8474C99.9286 44.3474 104.929 35.0474 106.129 23.0474C107.429 11.0474 104.429 0.947383 99.5286 0.447383C94.6286 -0.0526167 89.7286 9.24738 88.4286 21.2474Z" fill="#DFA0AE"/>
<path d="M85.5287 20.8474C84.2287 32.8474 87.2287 42.9474 92.1287 43.4474C97.0287 43.9474 102.029 34.6474 103.229 22.6474C104.529 10.6474 101.529 0.547389 96.6287 0.0473894C91.8287 -0.452611 86.8287 8.84739 85.5287 20.8474Z" fill="#C31E1A"/>
<path d="M30.7287 20.3474C31.2287 22.5474 30.6287 24.6474 29.3287 24.8474C28.1287 25.1474 26.7287 23.5474 26.2287 21.2474C25.7287 19.0474 26.3287 16.9474 27.6287 16.7474C28.8287 16.4474 30.2287 18.0474 30.7287 20.3474Z" fill="#F6F6F6"/>
<path d="M88.0289 20.4474C88.4289 18.1474 89.7289 16.5474 90.9289 16.7474C92.1289 16.9474 92.9289 18.9474 92.5289 21.1474C92.1289 23.4474 90.8289 25.0474 89.6289 24.8474C88.4289 24.6474 87.6289 22.6474 88.0289 20.4474Z" fill="#F6F6F6"/>
<path d="M86.8287 18.0474C88.2287 18.3474 91.8287 19.0474 90.9287 22.0474C90.4287 23.7474 86.8287 22.9474 85.0287 22.6474C64.0287 18.8474 54.5287 18.7474 33.2287 22.3474C31.5287 22.6474 28.4287 23.6474 27.8287 22.2474C26.5287 19.3474 29.3287 18.4474 31.7287 17.9474C50.9287 14.0474 67.4287 14.0474 86.8287 18.0474Z" fill="#C31E1A"/>
<path d="M134.729 26.1474L128.129 33.7474L213.929 33.9474C213.929 33.9474 263.229 33.5474 251.729 77.4474C250.929 81.4474 253.029 82.3474 255.729 77.6474C257.529 74.4474 267.029 58.7474 255.729 42.4474C252.929 39.0474 247.529 33.8474 239.829 30.7474C232.729 27.8474 223.529 26.8474 214.529 26.2474C199.229 26.0474 185.229 25.9474 173.429 25.9474C149.729 25.8474 134.729 26.1474 134.729 26.1474Z" fill="url(#paint0_linear_6535_36298)"/>
<path d="M38.2288 29.1474C38.2288 29.1474 51.5288 44.9474 52.7288 64.3474C54.0288 83.7474 51.2288 126.347 101.329 126.347L101.229 116.947C101.229 116.947 76.3288 119.447 68.4288 96.3474C67.1288 92.8474 66.4288 89.5474 65.9288 85.5474C65.4288 81.2474 65.4288 76.3474 65.4288 69.8474C65.4288 45.6474 80.1288 29.2474 80.1288 29.2474H69.9288C69.9288 29.2474 64.2288 35.9474 59.1288 54.9474C54.7288 35.8474 48.3288 29.2474 48.3288 29.2474H38.2288V29.1474Z" fill="#DFA0AE"/>
<path d="M58.1288 60.7474C59.3288 54.4474 59.2288 54.4474 59.2288 54.4474L60.4288 60.6474C60.4288 60.6474 65.5288 39.1474 72.7288 29.1474H76.3288C76.3288 29.1474 63.6288 40.7474 62.8288 76.5474C62.0288 112.447 85.9288 116.647 101.229 116.847L226.029 116.947C230.329 116.947 233.029 116.247 235.029 115.347C237.029 114.547 238.329 115.747 237.729 117.347C236.029 122.747 228.829 127.347 224.229 127.347H101.229C101.229 127.347 56.9288 131.647 55.7288 77.7474C54.8288 39.7474 42.0288 29.0474 42.0288 29.0474H45.6288C45.7288 29.1474 51.8288 35.9474 58.1288 60.7474Z" fill="#C31E1A"/>
<path d="M228.429 51.5474C227.129 50.0474 225.229 49.3474 222.729 49.4474H195.229C194.529 49.3474 192.929 49.2474 191.229 50.3474C189.429 51.5474 188.229 53.8474 187.729 57.0474C186.729 63.9474 180.529 103.947 180.429 104.347V104.547C180.329 107.847 181.929 111.447 185.629 111.747C188.629 111.947 191.129 111.947 191.829 111.947C192.029 111.947 192.329 112.047 192.729 112.047C193.529 112.047 194.729 111.847 195.929 111.047C197.629 109.947 198.629 108.047 199.129 105.447C199.929 100.547 201.129 93.4474 201.629 90.1474H216.129H216.429C218.429 89.8474 222.529 87.8474 223.129 82.8474C223.129 82.4474 223.229 81.7474 223.329 81.5474C223.529 80.8474 224.029 78.1474 222.429 76.0474C221.729 75.1474 220.329 73.9474 217.629 73.9474C214.029 73.9474 207.729 73.8474 204.329 73.8474L205.229 68.2474C208.829 68.2474 216.929 68.2474 218.529 68.2474C225.229 68.2474 228.829 65.9474 229.429 61.4474C229.829 58.3474 229.929 56.9474 229.929 56.6474C230.129 56.1474 230.229 53.5474 228.429 51.5474ZM158.829 49.2474C146.929 49.2474 138.029 49.4474 136.929 49.4474C136.329 49.4474 134.529 49.3474 132.929 50.6474C131.329 51.8474 130.329 53.8474 129.929 56.5474C129.129 62.4474 122.229 103.747 122.229 104.147V104.347C122.229 104.747 122.129 108.047 124.129 110.147C125.129 111.147 126.429 111.747 128.029 111.747H135.829C137.529 111.747 140.529 111.547 141.529 106.347C142.129 103.247 143.329 95.7474 143.929 92.4474H152.729C155.729 92.4474 163.229 91.8474 168.429 86.3474C173.729 80.7474 176.329 74.8474 176.329 68.9474C176.229 61.5474 172.529 49.2474 158.829 49.2474ZM148.029 66.6474H152.829C153.529 66.6474 155.629 66.7474 156.429 67.7474C156.529 67.9474 157.029 68.3474 156.829 69.6474C156.229 73.5474 155.729 73.5474 153.329 73.5474C151.329 73.5474 148.729 73.5474 146.929 73.4474L148.029 66.6474ZM109.329 49.4474H108.929C106.529 49.4474 101.429 49.3474 100.329 56.0474C99.9287 58.4474 98.4287 67.7474 96.8287 77.5474C94.9287 89.4474 92.8287 101.847 92.4287 104.047C92.0287 106.347 92.3287 108.247 93.4287 109.547C95.0287 111.447 97.7287 111.647 99.6287 111.647C100.229 111.647 100.829 111.647 101.429 111.747C102.029 111.747 102.729 111.847 103.429 111.847C106.729 111.847 110.829 110.947 111.529 104.947C112.029 100.247 116.029 77.8474 118.129 65.8474C118.929 61.3474 119.529 58.0474 119.629 57.2474C119.929 55.2474 119.529 53.5474 118.429 52.2474C116.729 50.3474 113.829 49.4474 109.329 49.4474Z" fill="white"/>
<path d="M118.329 52.2474C116.729 50.3474 113.829 49.4474 109.329 49.4474H108.929C106.529 49.4474 101.429 49.3474 100.329 56.0474C99.9287 58.4474 98.4287 67.7474 96.8287 77.5474C94.9287 89.4474 92.8287 101.847 92.4287 104.047C92.0287 106.347 92.3287 108.247 93.4287 109.547C95.0287 111.447 97.7287 111.647 99.6287 111.647C100.229 111.647 100.829 111.647 101.429 111.747C102.029 111.747 102.729 111.847 103.429 111.847C106.729 111.847 110.829 110.947 111.529 104.947C112.029 100.247 116.029 77.8474 118.129 65.8474C118.929 61.3474 119.529 58.0474 119.629 57.2474C119.829 55.2474 119.429 53.5474 118.329 52.2474ZM115.529 56.5474C115.429 57.2474 114.829 60.5474 114.029 65.0474C111.729 77.9474 108.029 99.5474 107.429 104.347C107.029 107.647 105.529 107.847 101.529 107.647C100.829 107.647 100.129 107.547 99.5287 107.547C97.3287 107.547 96.6287 107.147 96.4287 106.847C96.1287 106.547 96.1287 105.747 96.3287 104.647C96.7287 102.347 98.7287 90.0474 100.729 78.0474C102.329 68.2474 103.829 58.9474 104.229 56.6474C104.729 53.6474 106.029 53.3474 108.529 53.3474C108.629 53.3474 108.829 53.3474 108.929 53.3474H109.429C113.729 53.3474 115.029 54.3474 115.429 54.7474C115.529 55.0474 115.729 55.5474 115.529 56.5474Z" fill="#352B5F"/>
<path d="M158.829 49.2474C146.929 49.2474 138.029 49.4474 136.929 49.4474C136.329 49.4474 134.529 49.3474 132.929 50.6474C131.329 51.8474 130.329 53.8474 129.929 56.5474C129.129 62.4474 122.229 103.747 122.229 104.147V104.347C122.229 104.747 122.129 108.047 124.129 110.147C125.129 111.147 126.429 111.747 128.029 111.747H135.829C137.529 111.747 140.529 111.547 141.529 106.347C142.129 103.247 143.329 95.7474 143.929 92.4474H152.729C155.729 92.4474 163.229 91.8474 168.429 86.3474C173.729 80.7474 176.329 74.8474 176.329 68.9474C176.229 61.5474 172.529 49.2474 158.829 49.2474ZM165.329 83.5474C161.029 88.0474 154.429 88.4474 152.529 88.4474H140.329L140.029 90.1474C140.029 90.2474 138.129 101.747 137.429 105.647C137.029 107.847 136.729 107.847 135.429 107.847H127.829C127.329 107.847 127.029 107.647 126.829 107.547C126.229 106.847 126.029 105.447 126.029 104.747C126.529 101.747 132.929 63.0474 133.729 57.1474C134.229 53.6474 135.929 53.4474 136.529 53.5474H136.629H136.829C136.929 53.5474 146.129 53.3474 158.829 53.3474C171.829 53.3474 172.229 67.3474 172.229 68.9474C172.229 73.7474 169.929 78.6474 165.329 83.5474Z" fill="#352B5F"/>
<path d="M159.429 65.0474C157.129 62.4474 153.029 62.6474 152.729 62.6474H144.629L142.129 77.3474H144.429C144.429 77.3474 149.829 77.4474 153.229 77.4474C158.029 77.4474 159.829 75.6474 160.729 70.1474C161.229 67.6474 160.229 66.0474 159.429 65.0474ZM156.829 69.6474C156.229 73.5474 155.729 73.5474 153.329 73.5474C151.329 73.5474 148.729 73.5474 146.929 73.4474L148.029 66.6474H152.829C153.529 66.6474 155.629 66.7474 156.429 67.7474C156.629 67.9474 157.029 68.3474 156.829 69.6474Z" fill="#352B5F"/>
<path d="M228.429 51.5474C227.129 50.0474 225.229 49.3474 222.729 49.4474H195.229C194.529 49.3474 192.929 49.2474 191.229 50.3474C189.429 51.5474 188.229 53.8474 187.729 57.0474C186.729 63.9474 180.529 103.947 180.429 104.347V104.547C180.329 107.847 181.929 111.447 185.629 111.747C188.629 111.947 191.129 111.947 191.829 111.947C192.029 111.947 192.329 112.047 192.729 112.047C193.529 112.047 194.729 111.847 195.929 111.047C197.629 109.947 198.629 108.047 199.129 105.447C199.929 100.547 201.129 93.4474 201.629 90.1474H216.129H216.429C218.429 89.8474 222.529 87.8474 223.129 82.8474C223.129 82.4474 223.229 81.7474 223.329 81.5474C223.529 80.8474 224.029 78.1474 222.429 76.0474C221.729 75.1474 220.329 73.9474 217.629 73.9474C214.029 73.9474 207.729 73.8474 204.329 73.8474L205.229 68.2474C208.829 68.2474 216.929 68.2474 218.529 68.2474C225.229 68.2474 228.829 65.9474 229.429 61.4474C229.829 58.3474 229.929 56.9474 229.929 56.6474C230.129 56.1474 230.229 53.5474 228.429 51.5474ZM226.029 56.2474V56.3474C226.029 56.3474 225.929 57.6474 225.529 60.9474C225.229 63.2474 223.129 64.2474 218.529 64.2474C216.529 64.2474 203.529 64.2474 203.529 64.2474H201.829L199.629 77.7474H201.929C202.029 77.7474 212.529 77.8474 217.629 77.8474C218.229 77.8474 218.929 77.9474 219.229 78.3474C219.629 78.8474 219.529 80.0474 219.429 80.5474V80.8474C219.429 80.8474 219.329 81.8474 219.229 82.2474C218.829 85.2474 216.529 85.9474 215.929 86.1474H198.229L197.929 87.8474C197.929 87.8474 196.229 98.3474 195.129 104.747C194.829 106.147 194.429 107.247 193.729 107.647C193.129 108.047 192.429 107.947 192.429 107.947L192.229 107.847H191.929C191.929 107.847 189.129 107.847 185.829 107.647C184.529 107.547 184.429 105.147 184.429 104.647C184.829 101.947 190.729 64.1474 191.629 57.4474C191.929 55.5474 192.529 54.1474 193.329 53.5474C193.729 53.2474 194.129 53.2474 194.329 53.2474C194.429 53.2474 194.429 53.2474 194.429 53.2474L194.829 53.4474H222.829C224.029 53.4474 225.029 53.7474 225.529 54.2474C226.029 54.8474 226.129 55.6474 226.129 56.0474C226.029 56.1474 226.029 56.2474 226.029 56.2474Z" fill="#352B5F"/>
<defs>
<linearGradient id="paint0_linear_6535_36298" x1="147.151" y1="9.70418" x2="235.237" y2="62.8106" gradientUnits="userSpaceOnUse">
<stop stop-color="#B4AABB" stop-opacity="0"/>
<stop offset="0.0810056" stop-color="#C2BACD"/>
<stop offset="1" stop-color="#342B5E"/>
</linearGradient>
</defs>
</svg>
